<?xml version="1.0" standalone="no"?>
<!DOCTYPE svg PUBLIC "-//W3C//DTD SVG 1.1//EN" "http://www.w3.org/Graphics/SVG/1.1/DTD/svg11.dtd">
<svg width="100%" height="100%" viewBox="0 0 1000 1000" version="1.1" xmlns="http://www.w3.org/2000/svg" xmlns:xlink="http://www.w3.org/1999/xlink" xml:space="preserve" style="fill-rule:evenodd;clip-rule:evenodd;stroke-linejoin:round;stroke-miterlimit:1.41421;">
    <g transform="matrix(1,0,0,1,138.956,8.08438)">
        <path d="M637.46,380.297L745.139,487.976L637.46,595.655L529.781,487.976L637.46,380.297Z" style="fill:rgb(228,228,228); stroke: black; stroke-width: 2px;" class="base 1"/>
    </g>
    <g transform="matrix(1,0,0,1,23.6959,-107.176)">
        <path d="M637.46,380.297L745.139,487.976L637.46,595.655L529.781,487.976L637.46,380.297Z" style="fill:rgb(228,228,228); stroke: black; stroke-width: 2px;" class="base 2"/>
    </g>
    <g transform="matrix(1,0,0,1,-91.4164,7.93615)">
        <path d="M637.46,380.297L745.139,487.976L637.46,595.655L529.781,487.976L637.46,380.297Z" style="fill:rgb(228,228,228); stroke: black; stroke-width: 2px;" class="base 3"/>
    </g>
    <g transform="matrix(-1,5.66554e-16,-5.66554e-16,-1,779.312,1369.3)">
        <path d="M117.345,657.912L183.125,705.704L183.476,783.767L52.543,782.698L51.565,705.704L117.345,657.912Z" style="fill:rgb(32,0,0);"   class="base home"/>
    </g>
    <g transform="matrix(1,0,0,1,-2.28585,-174.552)">
        <circle cx="145.471" cy="676.938" r="59.814" style="fill:rgb(32,0,0);" class="out 1"/>
    </g>
    <g transform="matrix(1,0,0,1,132.573,-174.552)">
        <circle cx="145.471" cy="676.938" r="59.814" style="fill:rgb(32,0,0);" class="out 2"/>
    </g>
</svg>
